<svg xmlns="http://www.w3.org/2000/svg" width="700" height="700" viewBox="0 0 700 700">
  <g id="PC-logo-dark-on-light" transform="translate(4909 16571)">
    <circle id="Rectangle_6304" cx="350" cy="350" r="350" transform="translate(-4909 -16571)" fill="#fff"/>
    <g id="Group_9057" transform="translate(-4750.872 -16482.56) scale(1.8)">
      <path id="Path_7947" d="M244.5,82.937a64.966,64.966,0,0,1,.147,112.183L120.882,266.7A33.137,33.137,0,0,1,71.169,238V116.96A30.587,30.587,0,0,1,117,90.439l54.671,31.424a19.07,19.07,0,1,1-17.75,33.759c-.42-.223-.835-.462-1.243-.714L110.89,130.89a1.068,1.068,0,0,0-1.457.386,1.056,1.056,0,0,0-.147.537v97.4a1.067,1.067,0,0,0,1.608.924l110.55-64.793a30.738,30.738,0,0,0-.067-53.075L106.708,44.186C74,25.117,36.025,48.725,36.025,86.581V292.546a1.089,1.089,0,0,1-1.037,1.087,33.842,33.842,0,0,1-32.218-20.4A35.64,35.64,0,0,1,0,258.985V80.586C0,11,69.515-17.5,118.232,10.873Z" transform="translate(-11.128 -5.441)" fill="#0b1d27"/>
    </g>
  </g>
</svg>
